<?xml version="1.0" encoding="UTF-8" standalone="no"?>
<!-- Generator: Adobe Illustrator 24.2.3, SVG Export Plug-In . SVG Version: 6.00 Build 0)  -->

<svg
   version="1.1"
   x="0px"
   y="0px"
   width="86.753021"
   height="176.27103"
   viewBox="0 0 86.753021 176.27103"
   enable-background="new 0 0 612 792"
   xml:space="preserve"
   id="svg127"
   sodipodi:docname="Birthday Party Hats   Assembled SVG.svg"
   xmlns:inkscape="http://www.inkscape.org/namespaces/inkscape"
   xmlns:sodipodi="http://sodipodi.sourceforge.net/DTD/sodipodi-0.dtd"
   xmlns="http://www.w3.org/2000/svg"
   xmlns:svg="http://www.w3.org/2000/svg"><defs
   id="defs131" /><sodipodi:namedview
   id="namedview129"
   pagecolor="#ffffff"
   bordercolor="#000000"
   borderopacity="0.25"
   inkscape:showpageshadow="2"
   inkscape:pageopacity="0.0"
   inkscape:pagecheckerboard="0"
   inkscape:deskcolor="#d1d1d1"
   showgrid="false" />

<g
   id="g1476"
   transform="translate(-184.77318,-472.7677)"><path
     fill="#f464ba"
     d="m 237.9812,514.32172 c -4.784,-0.672 -7.864,-5.704 -9.4,-10.323 -0.049,-0.002 -0.098,-0.003 -0.147,-0.004 -1.452,5.033 -4.76,9.371 -9.442,10.657 -7.057,24.045 -34.218,116.594 -34.218,116.594 -0.182,14.098 24.021,17.044 42.26,17.793 18.82,-0.14 42.258,-2.539 44.492,-17.073 -8.709,-31.419 -24.308,-85.086 -33.545,-117.644 z"
     id="path109" /><path
     fill="#cbe55e"
     d="m 208.5262,559.77572 c 1.497,-5.094 3.853,-13.107 5.104,-17.367 9.396,-5.338 18.016,-12.144 23.868,-19.988 0.891,3.122 2.235,7.812 3.581,12.502 -7.751,10.409 -20.03,18.95 -32.553,24.853 z m 32.388,85.811 c 15.296,-1.605 27.86,-6.117 27.915,-13.459 l -2.671,-9.487 c -6.653,9.057 -15.629,16.722 -25.244,22.946 z m 14.496,-60.533 c -1.343,-4.704 -2.69,-9.408 -3.594,-12.537 -13.551,18.288 -38.783,30.863 -57.424,35.378 l -4.381,14.908 c 18.967,-2.886 49.663,-16.457 65.399,-37.749 z"
     id="path111" /><path
     fill="#ffb55c"
     d="m 244.6752,547.42972 c -9.611,12.95 -25.814,22.994 -41.035,28.951 1.222,-4.15 3.05,-10.364 4.889,-16.619 12.521,-5.866 24.8,-14.443 32.55,-24.839 1.358,4.736 2.633,9.16 3.596,12.507 z m 14.294,50.15 c -0.881,-3.124 -2.217,-7.824 -3.559,-12.526 -15.736,21.293 -46.432,34.863 -65.399,37.748 l -2.645,9.031 c 0,1.815 0.696,3.47 2.001,4.938 18.762,-1.958 52.537,-16.063 69.602,-39.191 z"
     id="path113" /><path
     fill="#29c3d3"
     d="m 198.9342,592.42372 c 0.002,-0.008 4.705,-16.039 4.706,-16.044 15.221,-5.957 31.424,-16 41.035,-28.951 1.269,4.446 2.495,8.744 3.581,12.56 -11.517,15.549 -32.01,26.932 -49.322,32.435 z m 63.64,17.688 c -2.352,-8.232 -8.473,-29.658 -10.739,-37.62 -0.006,0.008 -0.013,0.016 -0.019,0.024 1.804,6.248 5.388,18.807 7.153,25.063 -17.065,23.129 -50.84,37.233 -69.602,39.191 3.769,4.255 12.396,7.055 22.658,8.476 17.716,-6.439 38.26,-18.463 50.549,-35.134 z m -32.889,-103.384 c -0.392,-0.833 -0.761,-1.743 -1.104,-2.729 -0.049,-0.002 -0.098,-0.003 -0.147,-0.004 -0.987,3.662 -3.52,7.512 -6.222,9.17 l -3.159,10.756 c 5.25,-3.712 9.925,-7.89 13.646,-12.486 -1.103,-1.176 -2.097,-2.762 -3.014,-4.707 z"
     id="path117" /><path
     fill="#29c3d3"
     d="m 219.20571,525.92 c 0.015,0 8.28,-11.263 9.861,-20.562 0.051,0.086 0.091,0.181 0.14,0.268 v 0 c 2.921,5.114 3.985,11.926 4.288,17.428 7.035,3.987 12.326,-2.365 13.349,-4.74 0,0 -5.278,-11.085 -12.177,-17.262 5.563,0.138 11.544,2.234 16.209,4.403 8.193,-5.609 2.092,-14.012 2.092,-14.012 0,0 -12.374,-0.56 -21.081,2.671 3.636,-4.563 9.485,-8.065 14.409,-10.401 0.921,-9.889 -9.446,-10.563 -9.446,-10.563 0,0 -9.342,10.268 -11.887,19.462 -2.504,-5.418 -2.877,-12.459 -2.615,-18.062 -8.297,-5.461 -13.764,3.37 -13.764,3.37 0,0 4.656,13.048 11.557,19.628 -5.953,-0.349 -12.33,-3.309 -17.144,-6.169 -8.724,4.748 -3.504,13.726 -3.504,13.726 0,0 13.728,2.037 22.788,-0.973 -3.109,5.097 -8.745,9.333 -13.538,12.236 -0.04,7.525 6.28,9.541 10.463,9.552 z"
     id="path95"
     style="fill:#9451ce;fill-opacity:1" /></g>



</svg>
