<?xml version="1.0" encoding="UTF-8" standalone="no"?>
<!-- Generator: Adobe Illustrator 24.2.3, SVG Export Plug-In . SVG Version: 6.00 Build 0)  -->

<svg
   version="1.1"
   x="0px"
   y="0px"
   viewBox="0 0 1058 1046"
   style="enable-background:new 0 0 1058 1046;"
   xml:space="preserve"
   id="svg101"
   sodipodi:docname="gecgos.svg"
   inkscape:version="1.2.1 (9c6d41e410, 2022-07-14)"
   xmlns:inkscape="http://www.inkscape.org/namespaces/inkscape"
   xmlns:sodipodi="http://sodipodi.sourceforge.net/DTD/sodipodi-0.dtd"
   xmlns:xlink="http://www.w3.org/1999/xlink"
   xmlns="http://www.w3.org/2000/svg"
   xmlns:svg="http://www.w3.org/2000/svg"><defs
   id="defs105" /><sodipodi:namedview
   id="namedview103"
   pagecolor="#ffffff"
   bordercolor="#000000"
   borderopacity="0.25"
   inkscape:showpageshadow="2"
   inkscape:pageopacity="0.0"
   inkscape:pagecheckerboard="0"
   inkscape:deskcolor="#d1d1d1"
   showgrid="false"
   inkscape:zoom="0.83365201"
   inkscape:cx="359.26261"
   inkscape:cy="629.75917"
   inkscape:window-width="1920"
   inkscape:window-height="1027"
   inkscape:window-x="1016"
   inkscape:window-y="186"
   inkscape:window-maximized="1"
   inkscape:current-layer="pupils" />
<style
   type="text/css"
   id="style2">
	.st0{stroke:#000000;stroke-miterlimit:10;}
	.st1{fill:#67D7E1;stroke:#000000;stroke-width:5;stroke-miterlimit:10;}
	.st2{fill:#67D7E1;stroke:#000000;stroke-miterlimit:10;}
	.st3{fill:#FFFFFF;stroke:#FFFFFF;stroke-width:4;stroke-miterlimit:10;}
	.st4{fill:#FFFFFF;stroke:#000000;stroke-width:5;stroke-miterlimit:10;}
	.st5{fill:#FCFCFC;stroke:#000000;stroke-miterlimit:10;}
	.st6{fill:#FFFFFF;stroke:#000000;stroke-width:2;stroke-miterlimit:10;}
	.st7{display:none;fill:#F6D2A3;}
	.st8{fill:#F6D2A3;stroke:#020202;stroke-width:3;stroke-miterlimit:10;}
	.st9{fill:#F6D2A3;stroke:#020202;stroke-width:4;stroke-miterlimit:10;}
	.st10{fill:none;stroke:#000000;stroke-width:4;stroke-miterlimit:10;}
	.st11{fill:none;stroke:#000000;stroke-width:47;stroke-miterlimit:10;}
	.st12{display:none;opacity:0.39;}
</style>













<g
   id="g7763"
   transform="matrix(0.95795575,0,0,0.95795575,23.189476,22.51196)"><g
     id="bg">
	<circle
   class="st0"
   cx="527.79999"
   cy="521.20001"
   r="521.20001"
   id="circle4" />
	<circle
   class="st0"
   cx="527.79999"
   cy="521.20001"
   r="521.20001"
   id="circle6" />
</g><g
     id="outer_ears">
	<path
   class="st1"
   d="m 757.4,350.9 c 0,0 14.3,-128.9 87.3,-130.1 73,-1.2 100.5,147.9 47.4,183.5 -53.1,35.6 -68.5,45.3 -68.5,45.3"
   id="path9"
   style="fill:#ffffff;fill-opacity:1;stroke-width:10;stroke-dasharray:none" />
	<path
   class="st2"
   d="M 356.6,327.4"
   id="path11" />
	<path
   class="st1"
   d="m 353.5,327.4 c 0,0 -63,-23.2 -53.2,-78.5 0,0 13.4,-54.7 76.1,-49.5 62.7,5.2 62.2,85.2 62.2,85.2"
   id="path13"
   style="fill:#ffffff;fill-opacity:1;stroke-width:10;stroke-dasharray:none" />
</g><g
     id="inner_ears">
	<path
   class="st0"
   d="m 779.1,381.7 c 0,0 6.6,-59.3 40.2,-59.8 33.6,-0.5 46.3,68 21.8,84.4 -24.4,16.4 -31.5,20.8 -31.5,20.8"
   id="path16" />
	<path
   class="st0"
   d="m 377.3,316.5 c 0,0 -30.1,-11.1 -25.4,-37.5 0,0 6.4,-26.1 36.4,-23.7 30,2.5 29.7,40.7 29.7,40.7"
   id="path18" />
	<line
   class="st3"
   x1="692.5"
   y1="289.79999"
   x2="795.70001"
   y2="204.10001"
   id="line20"
   style="stroke-width:10;stroke-dasharray:none" /><line
   class="st3"
   x1="131.92981"
   y1="830.94861"
   x2="235.12982"
   y2="745.24866"
   id="line20-5"
   style="fill:#ffffff;stroke:#ffffff;stroke-width:10;stroke-miterlimit:10;stroke-dasharray:none" />
</g><g
     id="body">
	<path
   class="st1"
   d="m 579.7,253.6 c 0,0 -234.6,13.2 -248.5,92.7 -13.9,79.5 -127.7,593.4 -61.5,609.1 66.2,15.6 152.1,174.5 483.1,26.5 0,0 131.2,-463.4 80.1,-559.7 C 781.7,325.8 703.9,256 579.7,253.6 Z"
   id="path23"
   style="fill:#ffffff;fill-opacity:1;stroke-width:10;stroke-dasharray:none" />
</g><g
     id="eye_circles">
	<circle
   class="st4"
   cx="360.20001"
   cy="454.60001"
   r="101"
   id="circle26"
   style="stroke-width:10;stroke-dasharray:none" />
	<circle
   class="st4"
   cx="635"
   cy="488.5"
   r="101"
   id="circle28"
   style="stroke-width:10;stroke-dasharray:none" />
</g><g
     id="pupils">
	<circle
   class="st0"
   cx="653.40002"
   cy="498"
   r="29.5"
   id="circle31" />
	<circle
   class="st0"
   cx="376.5"
   cy="472"
   r="29.5"
   id="circle33" />
	<circle
   class="st5"
   cx="394.79999"
   cy="480.20001"
   r="4.6999998"
   id="circle35" />
	<circle
   class="st5"
   cx="673"
   cy="506.29999"
   r="4.6999998"
   id="circle37" />
</g><g
     id="tetth">
	<polygon
   class="st6"
   points="447.4,612.9 462,614.1 476.5,615.3 473.7,650.1 459.1,648.9 444.5,647.8 "
   id="polygon40"
   style="stroke-width:10;stroke-dasharray:none" />
	<line
   class="st2"
   x1="462.70001"
   y1="604.5"
   x2="458.29999"
   y2="649"
   id="line42"
   style="stroke-width:10;stroke-dasharray:none" />
</g><g
     id="snout">
	<path
   class="st2"
   d="M 484.8,597.1"
   id="path45" />
	
		<ellipse
   transform="matrix(0.9661,-0.2582,0.2582,0.9661,-139.0274,135.4076)"
   class="st7"
   cx="446.10001"
   cy="597.09998"
   rx="41"
   ry="22.4"
   id="ellipse47" />
	
		<ellipse
   transform="matrix(0.565,-0.8251,0.8251,0.565,-288.0591,663.0551)"
   class="st7"
   cx="484.79999"
   cy="604.70001"
   rx="22.4"
   ry="41"
   id="ellipse49" />
	<path
   class="st8"
   d="m 436,576.9 c 0,0 -36.2,13.1 -30.4,32.3 5.8,19.3 49.5,12.6 56,5.8 0,0 35.9,34.5 56.8,11.3 0,0 12.6,-18.7 -24,-42 C 457.8,561 436,576.9 436,576.9 Z"
   id="path51"
   style="fill:#ffffff;fill-opacity:1;stroke-width:10;stroke-dasharray:none" />
</g><g
     id="nose">
	
		<ellipse
   transform="matrix(0.09520993,-0.9955,0.9955,0.09520993,-152.6805,984.7142)"
   class="st0"
   cx="465.39999"
   cy="576.29999"
   rx="17.799999"
   ry="29.299999"
   id="ellipse54"
   style="stroke-width:9.99957;stroke-dasharray:none" />
</g><g
     id="arm_behind">
	<path
   class="st9"
   d="m 343,694.5 c 0,0 13.3,-1.4 84.4,27.6 71.1,29 56.2,58.5 56.2,58.5 0,0 -7,29.7 -68.8,9.4 C 353,769.7 334,754.8 334,754.8"
   id="path57"
   style="fill:#ffffff;fill-opacity:1;stroke-width:10;stroke-dasharray:none" />
</g><g
     id="arm">
	<path
   class="st9"
   d="m 574.9,786.7 c 0,0 -24.3,12.9 -98.4,24.8 -74.1,11.9 -77,-21.2 -77,-21.2 0,0 -12,-34.1 74.2,-53.7 86.2,-19.6 101.2,-16 101.2,-16"
   id="path60"
   style="fill:#ffffff;fill-opacity:1;stroke-width:10;stroke-dasharray:none" />
</g><g
     id="nubs"
     style="stroke-width:10.43889553;stroke-dasharray:none">
	<path
   class="st10"
   d="m 399,788 c 0,0 5.1,-8.3 22.4,-6.7"
   id="path63"
   style="stroke-width:10.43889553;stroke-dasharray:none" />
</g><g
     id="Layer_14">
	<circle
   class="st11"
   cx="527.79999"
   cy="521.20001"
   r="521.20001"
   id="circle66" />
</g><g
     id="line_bg">
	<line
   class="st3"
   x1="117.9"
   y1="234"
   x2="220.5"
   y2="184.7"
   id="line69"
   style="stroke-width:10;stroke-dasharray:none" />
	<line
   class="st3"
   x1="30.4"
   y1="516.20001"
   x2="208.39999"
   y2="402.29999"
   id="line71"
   style="stroke-width:10;stroke-dasharray:none" />
	<line
   class="st3"
   x1="60.599998"
   y1="387.5"
   x2="220.5"
   y2="303.29999"
   id="line73"
   style="stroke-width:10;stroke-dasharray:none" />
	<line
   class="st3"
   x1="100.5"
   y1="733"
   x2="241.60001"
   y2="612.5"
   id="line75"
   style="stroke-width:10;stroke-dasharray:none" />
	<line
   class="st3"
   x1="134.7"
   y1="570.5"
   x2="236"
   y2="499.20001"
   id="line77"
   style="stroke-width:10;stroke-dasharray:none" />
	<line
   class="st3"
   x1="525.20001"
   y1="157"
   x2="729.70001"
   y2="54"
   id="line79"
   style="stroke-width:10;stroke-dasharray:none" />
	<line
   class="st3"
   x1="337.60001"
   y1="136.7"
   x2="461.60001"
   y2="81.900002"
   id="line81"
   style="stroke-width:10;stroke-dasharray:none" />
	<line
   class="st3"
   x1="764.79999"
   y1="148"
   x2="823.09998"
   y2="100.3"
   id="line83"
   style="stroke-width:10;stroke-dasharray:none" />
	<line
   class="st3"
   x1="879.59998"
   y1="202"
   x2="911.20001"
   y2="174.2"
   id="line85"
   style="stroke-width:10;stroke-dasharray:none" />
	<line
   class="st3"
   x1="922.70001"
   y1="640.90002"
   x2="1033.6"
   y2="434"
   id="line87"
   style="stroke-width:10;stroke-dasharray:none" />
	<line
   class="st3"
   x1="867.79999"
   y1="488.70001"
   x2="992.5"
   y2="308.10001"
   id="line89"
   style="stroke-width:10;stroke-dasharray:none" />
	<line
   class="st3"
   x1="917.40002"
   y1="808.20001"
   x2="1030.3"
   y2="568.5"
   id="line91"
   style="stroke-width:10;stroke-dasharray:none" />
	<line
   class="st3"
   x1="879.79999"
   y1="575"
   x2="947"
   y2="473.5"
   id="line93"
   style="stroke-width:10;stroke-dasharray:none" />
	<line
   class="st3"
   x1="802"
   y1="864.59998"
   x2="861.5"
   y2="747.90002"
   id="line95"
   style="stroke-width:10;stroke-dasharray:none" />
</g></g>
<g
   id="Layer_1"
   class="st12">
	
		<image
   style="display:inline;overflow:visible;enable-background:new    ;"
   width="1048"
   height="1046"
   xlink:href="file:///G:/Downloads/ECD40CE.png"
   transform="matrix(1 0 0 1 10 0)"
   id="image98">
	</image>
</g>
</svg>
